<svg height="512pt" viewBox="0 0 512 512" width="512pt" xmlns="http://www.w3.org/2000/svg"><path d="m452 362h-121v-120h-150v120h-121c-33.085938 0-60 26.914062-60 60v90h512v-90c0-33.085938-26.914062-60-60-60zm-151-90v29.570312h-90v-29.570312zm-90 59.570312h90v30.429688h-90zm-151 60.429688h392c16.542969 0 30 13.457031 30 30h-452c0-16.542969 13.457031-30 30-30zm-30 90v-30h452v30zm0 0"/><path d="m120 241h30v30h-30zm0 0"/><path d="m60 241h30v30h-30zm0 0"/><path d="m0 241h30v30h-30zm0 0"/><path d="m145.71875 175.003906 25.976562 15-15 25.980469-25.976562-15zm0 0"/><path d="m93.757812 145.003906 25.980469 15-15 25.980469-25.980469-15zm0 0"/><path d="m41.796875 115.007812 25.980469 15-15 25.980469-25.980469-15zm0 0"/><path d="m215.996094 156.703125-25.980469 15-15-25.976563 25.980469-15zm0 0"/><path d="m185.996094 104.742188-25.980469 15-15-25.980469 25.980469-15zm0 0"/><path d="m140.992188 26.792969 15 25.980469-25.980469 15-15-25.980469zm0 0"/><path d="m241 120h30v30h-30zm0 0"/><path d="m241 60h30v30h-30zm0 0"/><path d="m241 0h30v30h-30zm0 0"/><path d="m311 130.71875 25.980469 15-15 25.976562-25.980469-15zm0 0"/><path d="m341 78.757812 25.980469 15-15 25.980469-25.980469-15zm0 0"/><path d="m371 26.796875 25.980469 15-15 25.980469-25.980469-15zm0 0"/><path d="m340.289062 190.003906 25.980469-15 15 25.980469-25.980469 15zm0 0"/><path d="m433.25 170.996094-25.980469 15-15-25.980469 25.980469-15zm0 0"/><path d="m470.207031 115 15 25.976562-25.980469 15-15-25.976562zm0 0"/><path d="m362 241h30v30h-30zm0 0"/><path d="m422 241h30v30h-30zm0 0"/><path d="m482 241h30v30h-30zm0 0"/></svg>