<svg height="512pt" viewBox="0 -27 512 512" width="512pt" xmlns="http://www.w3.org/2000/svg"><path d="m276.066406 317.796875c10.414063 12.25 24.691406 19.277344 39.167969 19.277344h196.765625v-30h-196.765625c-7.753906 0-13.546875-5.457031-16.3125-8.707031-4.957031-5.832032-7.917969-13.503907-7.917969-20.523438v-40.25h23.808594v-30h-23.835938c-.554687-24.332031-20.507812-43.960938-44.972656-43.960938s-44.417968 19.628907-44.976562 43.960938h-23.835938v30h23.8125v40.25c0 9.316406 1.152344 18.636719 3.359375 27.730469h-204.363281v30h215.96875c4.945312 9.074219 11.027344 17.570312 18.140625 25.179687 1.808594 1.929688 3.664063 3.785156 5.5625 5.570313h-239.671875v30l512 .75v-30.75h-207.207031c-18.160157-2.515625-35.183594-11.53125-48.769531-26.058594-15.898438-17.007813-25.019532-39.761719-25.019532-62.421875v-40.25h30v40.25c0 14.132812 5.488282 28.695312 15.0625 39.953125zm-30.0625-124.164063c7.921875 0 14.410156 6.175782 14.945313 13.960938h-29.894531c.539062-7.785156 7.03125-13.960938 14.949218-13.960938zm0 0"/><path d="m0 427.078125h512v30h-512zm0 0"/><path d="m247.65625 55.019531h-.003906c-4.585938 0-8.898438 1.785157-12.140625 5.027344-3.242188 3.246094-5.027344 7.554687-5.023438 12.136719 0 2.695312.523438 6.300781 4.402344 12.582031l12.765625 20.652344 12.757812-20.65625c3.878907-6.28125 4.402344-9.882813 4.402344-12.582031 0-4.585938-1.789062-8.894532-5.03125-12.136719-3.242187-3.238281-7.550781-5.023438-12.128906-5.023438zm0 0"/><path d="m352.074219 159.449219c-2.695313 0-6.300781.523437-12.578125 4.40625l-20.648438 12.761719 20.652344 12.757812c6.28125 3.878906 9.882812 4.402344 12.582031 4.402344h.003907c9.460937-.003906 17.160156-7.703125 17.160156-17.179688-.007813-9.457031-7.710938-17.148437-17.171875-17.148437zm0 0"/><path d="m143.222656 159.449219c-9.464844 0-17.164062 7.699219-17.164062 17.164062 0 9.464844 7.699218 17.164063 17.164062 17.164063 2.699219 0 6.300782-.523438 12.582032-4.40625l20.652343-12.761719-20.65625-12.757813c-6.28125-3.878906-9.882812-4.402343-12.578125-4.402343zm0 0"/><path d="m333.628906 114.910156.003906-.007812c3.242188-3.242188 5.027344-7.550782 5.023438-12.136719 0-4.585937-1.789062-8.898437-5.023438-12.128906-3.242187-3.246094-7.554687-5.03125-12.140624-5.03125 0 0 0 0-.003907 0-4.582031 0-8.886719 1.785156-12.136719 5.03125-1.90625 1.90625-4.082031 4.824219-5.777343 12.007812l-5.582031 23.628907 23.628906-5.582032c7.183594-1.699218 10.101562-3.875 12.007812-5.78125zm0 0"/><path d="m185.945312 90.632812-.003906-.003906c-6.695312-6.6875-17.582031-6.6875-24.269531.003906-6.695313 6.691407-6.695313 17.582032 0 24.273438 1.90625 1.90625 4.824219 4.085938 12.011719 5.78125l23.625 5.578125-5.582032-23.625c-1.695312-7.183594-3.875-10.101563-5.78125-12.007813zm0 0"/><path d="m319.722656 38.734375c8.957032-6.367187 10.585938-10.234375 11.371094-12.09375 1.921875-4.5625 1.957031-9.597656.09375-14.183594-1.863281-4.585937-5.402344-8.171875-9.964844-10.097656-9.414062-3.976563-20.308594.453125-24.285156 9.871094-.785156 1.859375-2.414062 5.722656-.730469 16.578125l3.726563 23.988281zm0 0"/><path d="m412.035156 225.898438c-1.855468-.78125-5.726562-2.417969-16.582031-.730469l-23.988281 3.726562 14.066406 19.789063c6.363281 8.953125 10.226562 10.582031 12.085938 11.367187v.003907c2.347656.988281 4.785156 1.457031 7.183593 1.457031 7.230469 0 14.117188-4.257813 17.105469-11.332031 3.96875-9.414063-.457031-20.304688-9.871094-24.28125zm0 0"/><path d="m97.683594 93.171875c-9.417969-3.972656-20.3125.453125-24.285156 9.871094-3.972657 9.417969.453124 20.308593 9.871093 24.285156 1.265625.535156 3.472657 1.464844 8.195313 1.464844 2.195312 0 4.9375-.203125 8.382812-.738281l23.988282-3.722657-14.0625-19.789062c-6.367188-8.953125-10.234376-10.585938-12.089844-11.371094zm0 0"/><path d="m404.945312 130.929688c4.40625 0 6.519532-.859376 7.75-1.359376 4.585938-1.863281 8.171876-5.402343 10.097657-9.964843 1.925781-4.558594 1.960937-9.597657.097656-14.1875-1.867187-4.585938-5.402344-8.171875-9.964844-10.09375-4.5625-1.929688-9.601562-1.960938-14.183593-.097657-1.871094.757813-5.757813 2.335938-12.246094 11.207032l-14.324219 19.597656 23.9375 4.046875c3.683594.621094 6.566406.851563 8.835937.851563zm0 0"/><path d="m82.609375 223.652344-.007813.003906c-9.464843 3.847656-14.035156 14.679688-10.1875 24.148438 2.921876 7.191406 9.871094 11.558593 17.195313 11.558593 2.320313 0 4.675781-.4375 6.957031-1.363281 1.867188-.761719 5.753906-2.339844 12.238282-11.210938l14.328124-19.597656-23.9375-4.042968c-10.832031-1.832032-14.71875-.253907-16.585937.503906zm0 0"/><path d="m190.644531 1.46875c-4.5625-1.925781-9.597656-1.957031-14.1875-.09375-4.585937 1.863281-8.171875 5.402344-10.097656 9.964844-1.925781 4.558594-1.957031 9.597656-.09375 14.183594.757813 1.871093 2.339844 5.757812 11.207031 12.242187l19.597656 14.328125 4.046876-23.9375c1.832031-10.832031.25-14.722656-.507813-16.589844-1.867187-4.585937-5.40625-8.171875-9.964844-10.097656zm0 0"/></svg>