<svg height="512pt" viewBox="0 -27 512 512" width="512pt" xmlns="http://www.w3.org/2000/svg"><path d="m0 329.464844h512v108.714844h-512zm0 0" fill="#59c36a"/><path d="m256.382812 329.464844h255.617188v108.714844h-255.617188zm0 0" fill="#00a66c"/><path d="m0 428.179688h512v30h-512zm0 0" fill="#97de3d"/><path d="m0 366.324219h512v30h-512zm0 0" fill="#97de3d"/><path d="m256.382812 428.179688h255.617188v30h-255.617188zm0 0" fill="#59c36a"/><path d="m256.382812 366.324219h255.617188v30h-255.617188zm0 0" fill="#59c36a"/><path d="m0 306.320312h280v30h-280zm0 0" fill="#97de3d"/><path d="m255.882812 55.019531c-.003906 0-.003906 0-.007812 0-4.585938 0-8.894531 1.785157-12.140625 5.027344-3.242187 3.246094-5.023437 7.554687-5.023437 12.136719 0 2.695312.523437 6.300781 4.40625 12.582031l12.761718 20.652344 12.757813-20.65625c3.878906-6.28125 4.402343-9.882813 4.402343-12.582031 0-4.585938-1.785156-8.894532-5.027343-12.136719-3.242188-3.242188-7.550781-5.023438-12.128907-5.023438zm0 0" fill="#00d7df"/><path d="m255.882812 55.019531c-.003906 0-.011718 0-.007812 0 .007812 0 .003906 50.398438.003906 50.398438l12.757813-20.65625c3.878906-6.28125 4.402343-9.882813 4.402343-12.582031 0-4.585938-1.785156-8.894532-5.027343-12.136719-3.242188-3.242188-7.550781-5.023438-12.128907-5.023438zm0 0" fill="#00aadf"/><path d="m360.300781 159.449219c-2.699219 0-6.300781.523437-12.578125 4.402343l-20.652344 12.765626 20.65625 12.757812c6.277344 3.878906 9.882813 4.398438 12.578126 4.398438h.007812c9.460938-.003907 17.15625-7.703126 17.15625-17.175782-.007812-9.457031-7.707031-17.148437-17.167969-17.148437zm0 0" fill="#00aadf"/><path d="m151.445312 159.449219c-9.464843 0-17.164062 7.699219-17.164062 17.164062 0 9.464844 7.699219 17.164063 17.164062 17.164063 2.699219 0 6.304688-.523438 12.582032-4.40625l20.65625-12.761719-20.65625-12.757813c-6.28125-3.878906-9.886719-4.402343-12.582032-4.402343zm0 0" fill="#00d7df"/><path d="m341.851562 114.910156.007813-.007812c3.238281-3.242188 5.023437-7.550782 5.023437-12.136719s-1.789062-8.898437-5.027343-12.128906c-3.242188-3.246094-7.550781-5.03125-12.136719-5.03125h-.003906c-4.582032 0-8.890625 1.785156-12.136719 5.03125-1.90625 1.90625-4.085937 4.824219-5.78125 12.007812l-5.578125 23.628907 23.625-5.582032c7.183594-1.699218 10.101562-3.878906 12.007812-5.78125zm0 0" fill="#00aadf"/><path d="m194.167969 90.632812-.003907-.003906c-6.691406-6.6875-17.578124-6.6875-24.269531.003906-6.691406 6.691407-6.691406 17.582032 0 24.273438 1.910157 1.90625 4.828125 4.085938 12.011719 5.78125l23.628906 5.578125-5.582031-23.625c-1.699219-7.183594-3.875-10.101563-5.785156-12.007813zm0 0" fill="#00d7df"/><path d="m327.945312 38.730469c8.957032-6.363281 10.585938-10.234375 11.371094-12.09375 1.925782-4.558594 1.957032-9.59375.09375-14.179688-1.863281-4.585937-5.402344-8.171875-9.964844-10.097656-9.414062-3.976563-20.304687.449219-24.285156 9.871094-.78125 1.855469-2.414062 5.722656-.726562 16.578125l3.722656 23.988281zm0 0" fill="#00aadf"/><path d="m420.261719 225.898438c-1.859375-.785157-5.726563-2.417969-16.582031-.730469l-23.992188 3.726562 14.066406 19.789063c6.363282 8.953125 10.230469 10.582031 12.085938 11.367187h.003906c2.347656.992188 4.78125 1.460938 7.183594 1.460938 7.230468 0 14.117187-4.257813 17.101562-11.332031 3.972656-9.414063-.453125-20.304688-9.867187-24.28125zm0 0" fill="#00aadf"/><path d="m105.90625 93.171875c-9.414062-3.972656-20.308594.453125-24.285156 9.871094-3.972656 9.414062.453125 20.308593 9.871094 24.285156 1.269531.53125 3.472656 1.464844 8.199218 1.464844 2.195313 0 4.9375-.203125 8.378906-.738281l23.992188-3.726563-14.066406-19.785156c-6.363282-8.957031-10.230469-10.585938-12.089844-11.371094zm0 0" fill="#00d7df"/><path d="m413.171875 130.929688c4.402344 0 6.515625-.859376 7.75-1.359376 4.585937-1.863281 8.171875-5.402343 10.097656-9.964843s1.960938-9.601563.09375-14.1875c-1.863281-4.585938-5.402343-8.171875-9.960937-10.097657-4.5625-1.925781-9.601563-1.957031-14.183594-.097656-1.871094.761719-5.761719 2.339844-12.246094 11.210938l-14.324218 19.597656 23.933593 4.046875c3.683594.621094 6.566407.851563 8.839844.851563zm0 0" fill="#00aadf"/><path d="m90.832031 223.652344h-.003906c-9.464844 3.851562-14.039063 14.683594-10.191406 24.152344 2.921875 7.191406 9.875 11.554687 17.195312 11.554687 2.320313 0 4.679688-.4375 6.957031-1.363281 1.867188-.757813 5.753907-2.335938 12.238282-11.207032l14.328125-19.597656-23.9375-4.046875c-10.828125-1.828125-14.71875-.25-16.585938.507813zm0 0" fill="#00d7df"/><path d="m198.867188 1.46875c-4.558594-1.925781-9.597657-1.957031-14.1875-.09375-4.585938 1.863281-8.171876 5.402344-10.09375 9.964844-1.929688 4.558594-1.960938 9.597656-.097657 14.183594.757813 1.871093 2.339844 5.757812 11.207031 12.242187l19.597657 14.328125 4.046875-23.9375c1.832031-10.832031.25-14.722656-.507813-16.589844-1.863281-4.585937-5.402343-8.171875-9.964843-10.097656zm0 0" fill="#00d7df"/><path d="m325.492188 307.074219c-7.75 0-13.546876-5.457031-16.3125-8.707031-4.957032-5.832032-7.917969-13.503907-7.917969-20.523438v-49.378906h-90v49.378906c0 30.1875 12.066406 60.40625 33.109375 82.910156 21.894531 23.421875 50.707031 36.320313 81.121094 36.320313h186.507812v-90zm0 0" fill="#fa235e"/><path d="m301.261719 221.09375v-12.460938c0-24.8125-20.1875-45-45-45s-45 20.1875-45 45v12.460938zm0 0" fill="#ffda2d"/><path d="m325.492188 307.074219c-7.75 0-13.546876-5.457031-16.308594-8.707031-4.960938-5.832032-7.917969-13.503907-7.917969-20.523438v-49.378906h-45.265625v143.207031c20.019531 16.472656 44.199219 25.402344 69.492188 25.402344h186.507812v-90zm0 0" fill="#c91341"/><path d="m301.261719 208.632812c0-24.8125-20.1875-45-45-45-.085938 0-.171875.007813-.261719.007813v57.453125h45.261719zm0 0" fill="#fdbf00"/><path d="m187.453125 207.59375h137.621094v30h-137.621094zm0 0" fill="#c91341"/><path d="m256 207.59375h69.074219v30h-69.074219zm0 0" fill="#a11133"/></svg>